<svg viewBox="0 0 216 30" xmlns="http://www.w3.org/2000/svg"><g fill="none" fill-rule="evenodd"><path d="m14.394 9.07c-.987.026-1.675.234-2.065.623-.39.39-.623 1.117-.701 2.182-.364 3.974-2 6.675-4.909 8.104-.338.156-.669.286-.993.39-.325.104-.682.188-1.071.253-.39.065-.825.11-1.305.136-.481.026-1.032.039-1.656.039h-.974v-7.519h.312c1.169 0 1.993-.234 2.474-.701.481-.468.747-1.299.799-2.493.052-.935.117-1.701.195-2.299.078-.597.175-1.11.292-1.539.117-.429.279-.805.487-1.13.208-.325.468-.682.779-1.071 1.403-1.636 3.467-2.454 6.195-2.454h2.143v7.48m12.12 11.221v-10.714c0-1.091-.429-1.636-1.286-1.636-.416 0-.747.149-.993.448-.247.299-.37.695-.37 1.188v10.714h-7.13v-10.597c0-1.221.221-2.364.662-3.429.442-1.065 1.039-1.993 1.792-2.786.753-.792 1.649-1.416 2.688-1.87 1.039-.455 2.143-.682 3.312-.682 1.455 0 2.812.331 4.071.993 1.26.662 2.253 1.552 2.98 2.669.442.701.786 1.539 1.032 2.513.247.974.37 2.032.37 3.175v10.01h-7.13m20.298-19.363c1.351 0 2.617.26 3.799.779 1.182.519 2.214 1.227 3.097 2.123.883.896 1.584 1.948 2.104 3.156.519 1.208.779 2.5.779 3.877 0 1.351-.26 2.617-.779 3.799-.519 1.182-1.234 2.221-2.143 3.117-.909.896-1.967 1.604-3.175 2.123-1.208.519-2.487.779-3.838.779-1.377 0-2.675-.26-3.896-.779-1.221-.519-2.286-1.227-3.195-2.123-.909-.896-1.623-1.942-2.143-3.136-.519-1.195-.779-2.48-.779-3.857 0-1.403.26-2.701.779-3.896.519-1.195 1.24-2.234 2.162-3.117.922-.883 2-1.578 3.234-2.084 1.234-.506 2.565-.76 3.993-.76m-.234 7.01c-.753 0-1.396.279-1.929.838-.532.558-.799 1.227-.799 2.01 0 .805.273 1.487.818 2.045.545.558 1.195.838 1.948.838.753 0 1.403-.279 1.948-.838.545-.558.818-1.227.818-2.01 0-.831-.266-1.519-.799-2.065-.532-.545-1.201-.818-2.01-.818m20.14-6.351v10.208c0 .805.078 1.364.234 1.675.156.312.455.468.896.468.442 0 .753-.169.935-.506.182-.338.273-.883.273-1.636v-10.208h7.13v10.208c0 .805.078 1.364.234 1.675.156.312.455.468.896.468.416 0 .714-.169.896-.506.182-.338.273-.883.273-1.636v-10.208h7.13v11.688c0 1.091-.195 2.104-.584 3.039-.39.935-.916 1.747-1.578 2.435-.662.688-1.455 1.227-2.377 1.617-.922.39-1.903.584-2.941.584-1.065 0-2.032-.214-2.903-.643-.87-.429-1.747-1.11-2.63-2.045-.961.935-1.903 1.617-2.825 2.045-.922.429-1.89.643-2.903.643-1.221 0-2.39-.299-3.506-.896-1.117-.597-1.974-1.39-2.571-2.377-.416-.649-.721-1.39-.916-2.221-.195-.831-.292-1.831-.292-3v-10.87h7.13m22.675 25.714v-15.818c0-1.455.214-2.818.643-4.091.429-1.273 1.032-2.351 1.812-3.234.909-1.013 2.02-1.805 3.331-2.377 1.312-.571 2.695-.857 4.149-.857 1.377 0 2.669.26 3.877.779 1.208.519 2.26 1.221 3.156 2.104.896.883 1.604 1.929 2.123 3.136.519 1.208.779 2.487.779 3.838 0 1.351-.26 2.623-.779 3.818-.519 1.195-1.221 2.24-2.104 3.136-.883.896-1.922 1.61-3.117 2.143-1.195.532-2.454.799-3.779.799-.234 0-.481-.006-.74-.019-.26-.013-.636-.045-1.13-.097v-7.831c.338.26.636.435.896.526.26.091.545.136.857.136.753 0 1.39-.273 1.909-.818.519-.545.779-1.195.779-1.948 0-.753-.273-1.39-.818-1.909-.545-.519-1.208-.779-1.987-.779-.883 0-1.558.331-2.026.993-.468.662-.701 1.604-.701 2.825v15.545h-7.13m33.35-18.545c-.493-.286-.935-.429-1.325-.429-1.299 0-1.948.987-1.948 2.961v9h-7.13v-10.363c0-1.351.195-2.584.584-3.701.39-1.117.942-2.065 1.656-2.844.714-.779 1.584-1.383 2.61-1.812 1.026-.429 2.162-.643 3.409-.643.312 0 .617.013.916.039.299.026.708.078 1.227.156v7.636m12.935 11.766c-.364.052-.649.091-.857.117-.208.026-.455.039-.74.039-1.429 0-2.747-.253-3.954-.76-1.208-.506-2.26-1.195-3.156-2.065-.896-.87-1.597-1.909-2.104-3.117-.506-1.208-.76-2.513-.76-3.916 0-1.403.26-2.708.779-3.916.519-1.208 1.227-2.253 2.123-3.136.896-.883 1.954-1.578 3.175-2.084 1.221-.506 2.532-.76 3.935-.76 1.87 0 3.565.409 5.084 1.227 1.519.818 2.682 1.967 3.487 3.448.805 1.429 1.208 3.221 1.208 5.377v9.311h-7.13v-8.766c0-1.039-.247-1.851-.74-2.435-.493-.584-1.156-.877-1.987-.877-.753 0-1.396.279-1.929.838-.532.558-.799 1.227-.799 2.01 0 .753.253 1.377.76 1.87.506.493 1.136.74 1.89.74.571 0 1.143-.169 1.714-.506v7.363m14.688 1.909c.519.208.98.357 1.383.448.403.091.799.136 1.188.136.519 0 1.026-.091 1.519-.273.493-.182.935-.429 1.325-.74.416-.338.734-.714.955-1.13.221-.416.435-1 .643-1.753-.701.442-1.299.74-1.792.896-.493.156-1.065.234-1.714.234-.909 0-1.747-.169-2.513-.506-.766-.338-1.422-.818-1.967-1.442-.545-.623-.968-1.364-1.266-2.221-.299-.857-.448-1.805-.448-2.844v-11.922h7.13v10.208c0 .519.123.935.37 1.247.247.312.591.468 1.032.468.468 0 .805-.143 1.013-.429.208-.286.312-.766.312-1.442v-10.05h7.13v16.948c0 3.247-.961 5.87-2.883 7.87-.987 1.013-2.13 1.805-3.429 2.377-1.299.571-2.636.857-4.01.857-.727 0-1.403-.058-2.026-.175-.623-.117-1.273-.305-1.948-.565v-6.195m26.337-10.48c-.104-.338-.169-.617-.195-.838-.026-.221-.039-.474-.039-.76 0-.338.026-.63.078-.877.052-.247.143-.552.273-.916h3.584c-.13-.675-.396-1.195-.799-1.558-.403-.364-.929-.545-1.578-.545-.883 0-1.604.377-2.162 1.13-.558.753-.838 1.727-.838 2.922 0 1.247.266 2.247.799 3 .532.753 1.253 1.13 2.162 1.13.416 0 .766-.071 1.052-.214.286-.143.61-.422.974-.838l4.091 4.87c-1.039.805-2.032 1.377-2.98 1.714-.948.338-2.045.506-3.292.506-1.429 0-2.753-.253-3.974-.76-1.221-.506-2.279-1.195-3.175-2.065-.896-.87-1.597-1.909-2.104-3.117-.506-1.208-.76-2.513-.76-3.916 0-1.403.26-2.708.779-3.916.519-1.208 1.227-2.26 2.123-3.156.896-.896 1.954-1.597 3.175-2.104 1.221-.506 2.532-.76 3.935-.76 1.377 0 2.656.247 3.838.74 1.182.493 2.214 1.182 3.097 2.065.883.883 1.571 1.916 2.065 3.097.493 1.182.74 2.461.74 3.838v.545c0 .234-.013.493-.039.779h-10.831m24.12-3.195c-.493-.286-.935-.429-1.325-.429-1.299 0-1.948.987-1.948 2.961v9h-7.13v-10.363c0-1.351.195-2.584.584-3.701.39-1.117.942-2.065 1.656-2.844.714-.779 1.584-1.383 2.61-1.812 1.026-.429 2.162-.643 3.409-.643.312 0 .617.013.916.039.299.026.708.078 1.227.156v7.636m13.909.312c-.987.026-1.675.234-2.065.623-.39.39-.623 1.117-.701 2.182-.364 3.974-2 6.675-4.909 8.104-.338.156-.669.286-.993.39-.325.104-.682.188-1.071.253-.39.065-.825.11-1.305.136-.481.026-1.032.039-1.656.039h-.974v-7.519h.312c1.169 0 1.993-.234 2.474-.701.481-.468.747-1.299.799-2.493.052-.935.117-1.701.195-2.299.078-.597.175-1.11.292-1.539.117-.429.279-.805.487-1.13.208-.325.468-.682.779-1.071 1.403-1.636 3.467-2.454 6.195-2.454h2.143v7.48" fill="#727d8c"/></g></svg>